<svg xmlns="http://www.w3.org/2000/svg" width="140" height="54" fill="none"><path fill="white" d="M85.3679 46.671c.4088-.4779.5724-1.0354.5724-1.6725 0-.6372-.1636-1.115-.4089-1.5929-.2453-.4778-.6541-.7964-1.1448-.9557-.4906-.1593-1.3083-.3186-2.3713-.3186h-2.0442v9.7961h1.9624V47.786c.9813 0 1.6354-.0797 2.0443-.1593.4906-.1593.9812-.4779 1.3901-.9557Zm-1.4719-1.115c-.0817.1593-.2453.2389-.4088.3186-.1636.0796-.4906.0796-.9813.0796h-.5724v-1.9911h.5724c.5724 0 .9813.0797 1.2266.1593.3271.1593.4906.4779.4906.7964-.1635.239-.2453.4779-.3271.6372ZM88.6388 42.1313l-3.9249 9.7961h1.9624l.8177-1.9911h4.0885l.8177 1.9911h1.9625l-3.7614-9.7961h-1.9625Zm-.4088 5.9732 1.3901-3.3449 1.3083 3.3449H88.23ZM100.904 46.5913c.327-.3982.491-.9557.491-1.5928 0-.6372-.164-1.115-.409-1.5929-.245-.4778-.654-.7964-1.1449-.9557-.4906-.1593-1.2265-.3186-2.3713-.3186h-2.0443v9.7961h1.8808V47.786h.1635l2.2896 4.1414h2.1256l-2.371-4.3804c.572-.1592 1.063-.5575 1.39-.9557Zm-1.717-.876c-.2453.1593-.6542.2389-1.2266.2389h-.6541v-1.9911h.4906c.4906 0 .8994 0 1.063.0797.1635.0796.3271.1593.4906.3185.0818.1593.1635.3186.1635.5575 0 .3983-.0817.6372-.327.7965ZM102.703 43.9631h1.717v7.9643h1.963v-7.9643h1.88v-1.8318h-5.56v1.8318ZM115.622 48.5824l-4.333-6.4511h-1.881v9.7961h1.962v-6.4511l4.334 6.4511h1.799v-9.7961h-1.881v6.4511ZM118.894 51.9274h5.478v-1.8318h-3.598V47.547h3.598v-1.8317h-3.598v-1.7522h3.598v-1.8318h-5.478v9.7961ZM131.241 46.5913c.327-.3982.49-.9557.49-1.5928 0-.6372-.163-1.115-.408-1.5929-.328-.4778-.655-.7964-1.145-.9557-.491-.1593-1.227-.3186-2.372-.3186h-2.044v9.7961h1.963V47.786h.163l2.29 4.1414h2.126l-2.372-4.3804c.573-.1592 1.063-.5575 1.309-.9557Zm-1.717-.876c-.246.1593-.655.2389-1.227.2389h-.572v-1.9911h.49c.491 0 .9 0 1.063.0797.164.0796.327.1593.491.3185.082.1593.163.3186.163.5575 0 .3983-.163.6372-.408.7965ZM137.619 47.1485c-.164-.1593-.572-.5575-1.308-1.115-.818-.6371-1.227-1.0353-1.39-1.2743-.082-.1593-.164-.3185-.164-.4778s.082-.3186.245-.4779c.164-.1593.327-.1593.655-.1593.49 0 1.063.3186 1.553 1.0354l1.39-1.1947c-.49-.6371-1.063-1.0353-1.472-1.2742-.49-.239-.899-.3186-1.471-.3186-.818 0-1.472.2389-1.963.7168-.572.4778-.818 1.0353-.818 1.7521 0 .4779.164.9557.491 1.4336.327.4778 1.063 1.115 2.126 1.9911.572.4778.981.7964 1.145 1.0353.163.2389.245.4779.245.6372 0 .2389-.082.4778-.327.6371s-.491.3186-.818.3186c-.654 0-1.226-.3982-1.717-1.2743l-1.635.9557c.409.7168.817 1.2743 1.39 1.5929.572.3185 1.145.4778 1.881.4778.899 0 1.635-.2389 2.207-.7964.573-.5575.9-1.1947.9-1.9911 0-.3982-.082-.7964-.245-1.115-.164-.3186-.491-.7168-.9-1.115Z"/><path fill="#FFB62C" d="M138.6.2412h-27.884V7.887H120.938v8.9997c-1.227.0796-2.208 1.115-2.208 2.3096 0 1.1947.981 2.23 2.208 2.3097h.081v16.6454H128.869V21.5855h.082c1.227-.0796 2.208-1.115 2.208-2.3096 0-1.1947-.981-2.23-2.208-2.3097V7.8869h10.221V.2412h-.572ZM79.8894 37.8326v.3982h7.85V23.8155H97.2247V16.2494H87.7394V7.8869H103.93V.2412H79.8077v16.6454c-1.1448.1593-2.0443 1.115-2.0443 2.3096 0 1.1947.8995 2.1504 2.0443 2.3097l.0817.0796v16.2471ZM48.8984 46.9916c-7.5228 0-12.429-3.9025-17.744-8.0439-3.7615-3.0265-7.6864-6.0529-12.4291-7.1679V21.5059c1.2266-.0797 2.2078-1.115 2.2078-2.3097 0-1.1946-.9812-2.23-2.2078-2.3096V.2412H3.7614V7.887h7.1958v8.9997c-1.2266.0796-2.2078 1.115-2.2078 2.3096 0 1.1947.9812 2.23 2.2078 2.3097h.0817V31.6205C4.0885 32.9744 1.2265 37.6734 0 41.6555l6.9505 1.9114c1.063-3.7432 3.4343-5.2564 8.0952-5.2564 3.9249 0 7.441 2.7875 11.5295 6.0529 5.4786 4.3007 12.1838 9.6368 22.2415 9.6368 13.9009 0 21.7508-8.6811 22.0779-9.0793l-5.4786-4.6193c-.0818.3186-6.051 6.69-16.5176 6.69Z"/><path fill="#FFB62C" d="M29.764 21.4239c1.1448 9.5572 9.4853 17.0436 19.6248 17.0436s18.48-7.4068 19.6248-17.0436c1.1448-.1593 1.9625-1.115 1.9625-2.3096 0-1.115-.8177-2.0707-1.9625-2.3097C67.787 7.3271 59.4465 0 49.3888 0S30.9906 7.4068 29.764 16.8843c-1.063.2389-1.8807 1.1946-1.8807 2.3096s.8177 1.9911 1.8807 2.23ZM49.3888 7.6457c5.7239 0 10.5483 3.9822 11.6113 9.2386-1.063.2389-1.9625 1.115-1.9625 2.3096 0 1.115.8177 2.0707 1.9625 2.3097-1.063 5.336-5.8874 9.3182-11.6113 9.3182-5.8057 0-10.5483-3.9822-11.6113-9.3182 1.1447-.1593 2.0442-1.115 2.0442-2.3097 0-1.115-.8995-2.0707-1.9625-2.3096.9813-5.2564 5.8057-9.2386 11.5296-9.2386Z"/><path fill="white" d="M77.8452 50.1748h-1.8807v1.8588h1.8807v-1.8588Z"/></svg>