<svg xmlns="http://www.w3.org/2000/svg" width="140" height="54" fill="none">
  <path fill="#FFB62C"
    d="M138.6.2412h-27.884V7.887H120.938v8.9997c-1.227.0796-2.208 1.115-2.208 2.3096 0 1.1947.981 2.23 2.208 2.3097h.081v16.6454H128.869V21.5855h.082c1.227-.0796 2.208-1.115 2.208-2.3096 0-1.1947-.981-2.23-2.208-2.3097V7.8869h10.221V.2412h-.572ZM79.8894 37.8326v.3982h7.85V23.8155H97.2247V16.2494H87.7394V7.8869H103.93V.2412H79.8077v16.6454c-1.1448.1593-2.0443 1.115-2.0443 2.3096 0 1.1947.8995 2.1504 2.0443 2.3097l.0817.0796v16.2471ZM48.8984 46.9916c-7.5228 0-12.429-3.9025-17.744-8.0439-3.7615-3.0265-7.6864-6.0529-12.4291-7.1679V21.5059c1.2266-.0797 2.2078-1.115 2.2078-2.3097 0-1.1946-.9812-2.23-2.2078-2.3096V.2412H3.7614V7.887h7.1958v8.9997c-1.2266.0796-2.2078 1.115-2.2078 2.3096 0 1.1947.9812 2.23 2.2078 2.3097h.0817V31.6205C4.0885 32.9744 1.2265 37.6734 0 41.6555l6.9505 1.9114c1.063-3.7432 3.4343-5.2564 8.0952-5.2564 3.9249 0 7.441 2.7875 11.5295 6.0529 5.4786 4.3007 12.1838 9.6368 22.2415 9.6368 13.9009 0 21.7508-8.6811 22.0779-9.0793l-5.4786-4.6193c-.0818.3186-6.051 6.69-16.5176 6.69Z" />
  <path fill="#FFB62C"
    d="M29.764 21.4239c1.1448 9.5572 9.4853 17.0436 19.6248 17.0436s18.48-7.4068 19.6248-17.0436c1.1448-.1593 1.9625-1.115 1.9625-2.3096 0-1.115-.8177-2.0707-1.9625-2.3097C67.787 7.3271 59.4465 0 49.3888 0S30.9906 7.4068 29.764 16.8843c-1.063.2389-1.8807 1.1946-1.8807 2.3096s.8177 1.9911 1.8807 2.23ZM49.3888 7.6457c5.7239 0 10.5483 3.9822 11.6113 9.2386-1.063.2389-1.9625 1.115-1.9625 2.3096 0 1.115.8177 2.0707 1.9625 2.3097-1.063 5.336-5.8874 9.3182-11.6113 9.3182-5.8057 0-10.5483-3.9822-11.6113-9.3182 1.1447-.1593 2.0442-1.115 2.0442-2.3097 0-1.115-.8995-2.0707-1.9625-2.3096.9813-5.2564 5.8057-9.2386 11.5296-9.2386Z" />
</svg>