<?xml version="1.0" standalone="no"?>
<!DOCTYPE svg PUBLIC "-//W3C//DTD SVG 20010904//EN"
 "http://www.w3.org/TR/2001/REC-SVG-20010904/DTD/svg10.dtd">
<svg version="1.0" xmlns="http://www.w3.org/2000/svg"
 width="260.000000pt" height="260.000000pt" viewBox="0 0 260.000000 260.000000"
 preserveAspectRatio="xMidYMid meet">
<metadata>
Created by potrace 1.14, written by Peter Selinger 2001-2017
</metadata>
<g transform="translate(0.000000,260.000000) scale(0.100000,-0.100000)"
fill="#000000" stroke="none">
<path d="M306 2589 c-62 -15 -153 -68 -197 -116 -22 -24 -55 -74 -72 -111
l-32 -67 0 -990 c0 -918 1 -994 18 -1040 37 -108 141 -207 254 -244 63 -21 76
-21 1016 -21 1048 0 1021 -1 1119 61 65 42 115 100 152 178 l31 66 0 996 0
995 -37 76 c-45 91 -103 147 -196 191 l-67 32 -975 2 c-566 1 -991 -3 -1014
-8z m1444 -300 c90 -41 178 -131 209 -214 12 -31 21 -64 21 -74 0 -9 11 -27
25 -39 14 -12 25 -29 25 -37 0 -8 -11 -25 -25 -37 -14 -12 -25 -29 -25 -39 0
-68 -80 -193 -159 -250 -172 -124 -401 -98 -545 61 -41 46 -82 125 -92 180 -4
19 -15 41 -26 48 -10 7 -18 24 -18 37 0 13 8 30 18 37 11 7 22 29 26 49 11 62
64 154 115 202 127 118 297 147 451 76z m-800 -142 c0 -161 1 -173 20 -185 11
-7 20 -23 20 -37 0 -14 -9 -30 -20 -37 -18 -12 -20 -24 -20 -121 0 -94 2 -108
18 -113 59 -20 131 -64 232 -144 63 -49 148 -107 188 -127 62 -31 86 -37 156
-41 129 -7 241 26 331 98 21 17 41 30 44 30 4 0 29 -20 56 -45 l50 -45 -42
-39 c-54 -49 -161 -105 -238 -125 -226 -58 -387 -14 -620 170 -60 47 -132 97
-160 110 -97 46 -212 24 -247 -49 l-17 -35 -70 20 c-68 20 -69 21 -60 47 30
79 93 141 169 168 l50 18 0 107 c0 88 -3 108 -15 108 -8 0 -19 10 -26 21 -14
26 2 69 26 69 13 0 15 15 13 98 l-3 97 -72 3 -73 3 0 74 0 75 155 0 155 0 0
-173z m250 -1127 l0 -80 -165 0 -165 0 0 -90 0 -90 100 0 100 0 0 -75 0 -75
-100 0 -100 0 0 -155 0 -155 -80 0 -80 0 0 178 c0 166 -1 178 -20 190 -11 7
-20 23 -20 37 0 14 9 30 20 37 19 12 20 24 20 185 l0 173 245 0 245 0 0 -80z
m730 0 l0 -80 -105 0 -105 0 0 -90 c0 -81 2 -91 24 -113 28 -28 25 -66 -6 -74
-17 -5 -18 -19 -18 -184 l0 -179 -80 0 -80 0 0 178 c0 166 -1 178 -20 190 -11
7 -20 23 -20 37 0 14 9 30 20 37 18 11 20 24 20 105 l0 93 -105 0 -105 0 0 80
0 80 290 0 290 0 0 -80z"/>
<path d="M1505 2158 c-62 -23 -112 -66 -141 -122 l-29 -56 23 -15 c28 -21 29
-59 0 -79 l-22 -16 26 -54 c88 -178 348 -181 439 -4 23 44 24 64 5 75 -26 15
-28 50 -5 72 19 17 20 24 10 52 -31 88 -115 149 -214 155 -34 2 -75 -1 -92 -8z"/>
</g>
</svg>
